<svg width="39" height="22" viewBox="0 0 39 22" fill="none" xmlns="http://www.w3.org/2000/svg">
<path d="M19.5 2.10995e-06C19.9252 2.14713e-06 20.3347 0.0766814 20.7283 0.230042C21.1244 0.380968 21.4743 0.608578 21.778 0.912865L38.1799 17.3444C38.7266 17.8921 39 18.5311 39 19.2614C39 19.9917 38.7266 20.6307 38.1799 21.1784C37.6332 21.7261 36.9953 22 36.2664 22C35.5374 22 34.8995 21.7261 34.3528 21.1784L19.5 6.29876L4.64719 21.1784C4.10046 21.7261 3.46262 22 2.73364 22C2.00467 22 1.36682 21.7261 0.820091 21.1784C0.273365 20.6307 -3.63913e-06 19.9917 -3.57528e-06 19.2614C-3.51144e-06 18.5311 0.273365 17.8921 0.820092 17.3444L17.222 0.912865C17.5257 0.608578 17.8744 0.380968 18.268 0.230042C18.6641 0.0766813 19.0748 2.07278e-06 19.5 2.10995e-06Z" fill="#616161"/>
</svg>
