<svg width="86" height="69" viewBox="0 0 86 69" fill="none" xmlns="http://www.w3.org/2000/svg">
<path d="M86 9.57165V59.4283C86 62.093 85.0697 64.3551 83.2092 66.2148C81.3459 68.0716 79.0792 69 76.4093 69H9.59068C6.92075 69 4.65412 68.0716 2.79078 66.2148C0.930261 64.3551 0 62.093 0 59.4283V9.57165C0 6.90701 0.930261 4.64488 2.79078 2.78524C4.65412 0.928414 6.92075 0 9.59068 0H76.4093C79.0792 0 81.3459 0.928414 83.2092 2.78524C85.0697 4.64488 86 6.90701 86 9.57165ZM9.59068 17.5655H76.4093V9.57165H9.59068V17.5655ZM9.59068 34.3948V59.4283H76.4093V34.3948H9.59068Z" fill="#F8F8F8"/>
</svg>
