<svg width="80" height="85" viewBox="0 0 80 85" fill="none" xmlns="http://www.w3.org/2000/svg">
<rect y="77" width="80" height="8" rx="2" fill="#F8F8F8"/>
<path d="M17.4672 39.5237C18.3755 38.6078 19.5116 38.1682 20.8755 38.2048C22.2365 38.2386 23.3712 38.7135 24.2795 39.6293L35.179 50.6199L35.179 4.8612C35.179 3.52261 35.6514 2.37706 36.596 1.42454C37.5378 0.474847 38.6725 -1.1071e-06 40 -1.04907e-06C41.3275 -9.91046e-07 42.4622 0.474847 43.404 1.42454C44.3486 2.37706 44.821 3.52261 44.821 4.8612L44.821 50.6199L55.8253 39.5237C56.7336 38.6078 57.8515 38.1498 59.179 38.1498C60.5065 38.1498 61.6245 38.6078 62.5327 39.5237C63.5109 40.4395 64 41.5668 64 42.9054C64 44.244 63.5109 45.4064 62.5327 46.3927L43.3537 65.7319C42.8646 66.1546 42.3406 66.4716 41.7817 66.683C41.2227 66.8943 40.6288 67 40 67C39.3712 67 38.7773 66.8943 38.2183 66.683C37.6594 66.4716 37.1354 66.1546 36.6463 65.7319L17.3624 46.2871C16.4541 45.3712 16 44.244 16 42.9054C16 41.5668 16.4891 40.4395 17.4672 39.5237Z" fill="#F8F8F8"/>
</svg>
