<svg width="56" height="45" viewBox="0 0 56 45" fill="none" xmlns="http://www.w3.org/2000/svg">
<rect width="56" height="45" fill="white"/>
<path d="M52.5581 36L40.7442 24.1554C39.814 24.8705 38.6747 25.4375 37.3265 25.8566C35.9771 26.2769 34.6047 26.487 33.2093 26.487C29.5194 26.487 26.3957 25.205 23.8381 22.6408C21.2794 20.0754 20 16.943 20 13.2435C20 9.54404 21.2794 6.41161 23.8381 3.84622C26.3957 1.28207 29.5194 0 33.2093 0C36.8992 0 40.0236 1.28207 42.5823 3.84622C45.1398 6.41161 46.4186 9.54404 46.4186 13.2435C46.4186 14.6425 46.2251 15.9793 45.8381 17.2539C45.4499 18.5285 44.8837 19.6632 44.1395 20.658L56 32.5492L52.5581 36ZM33.2093 21.544C35.5349 21.544 37.4964 20.7432 39.094 19.1416C40.6902 17.5411 41.4884 15.5751 41.4884 13.2435C41.4884 10.9119 40.6902 8.94529 39.094 7.34363C37.4964 5.74321 35.5349 4.94301 33.2093 4.94301C30.8837 4.94301 28.9228 5.74321 27.3265 7.34363C25.729 8.94529 24.9302 10.9119 24.9302 13.2435C24.9302 15.5751 25.729 17.5411 27.3265 19.1416C28.9228 20.7432 30.8837 21.544 33.2093 21.544Z" fill="#616161"/>
</svg>
