<svg width="36" height="36" viewBox="0 0 36 36" fill="none" xmlns="http://www.w3.org/2000/svg">
<path d="M32.5581 36L20.7442 24.1554C19.814 24.8705 18.6747 25.4375 17.3265 25.8566C15.9771 26.2769 14.6047 26.487 13.2093 26.487C9.51938 26.487 6.39566 25.205 3.83814 22.6408C1.27938 20.0754 0 16.943 0 13.2435C0 9.54404 1.27938 6.41161 3.83814 3.84622C6.39566 1.28207 9.51938 0 13.2093 0C16.8992 0 20.0236 1.28207 22.5823 3.84622C25.1398 6.41161 26.4186 9.54404 26.4186 13.2435C26.4186 14.6425 26.2251 15.9793 25.8381 17.2539C25.4499 18.5285 24.8837 19.6632 24.1395 20.658L36 32.5492L32.5581 36ZM13.2093 21.544C15.5349 21.544 17.4964 20.7432 19.094 19.1416C20.6902 17.5411 21.4884 15.5751 21.4884 13.2435C21.4884 10.9119 20.6902 8.94529 19.094 7.34363C17.4964 5.74321 15.5349 4.94301 13.2093 4.94301C10.8837 4.94301 8.92279 5.74321 7.32651 7.34363C5.72899 8.94529 4.93023 10.9119 4.93023 13.2435C4.93023 15.5751 5.72899 17.5411 7.32651 19.1416C8.92279 20.7432 10.8837 21.544 13.2093 21.544Z" fill="#616161"/>
</svg>
