<svg width="55" height="50" viewBox="0 0 55 50" fill="none" xmlns="http://www.w3.org/2000/svg">
<path d="M37.75 26.25L34.125 22.625C34.5 20.6667 33.9375 18.8333 32.4375 17.125C30.9375 15.4167 29 14.75 26.625 15.125L23 11.5C23.7083 11.1667 24.4267 10.9167 25.155 10.75C25.885 10.5833 26.6667 10.5 27.5 10.5C30.625 10.5 33.2817 11.5933 35.47 13.78C37.6567 15.9683 38.75 18.625 38.75 21.75C38.75 22.5833 38.6667 23.365 38.5 24.095C38.3333 24.8233 38.0833 25.5417 37.75 26.25ZM45.75 34.125L42.125 30.625C43.7083 29.4167 45.115 28.0933 46.345 26.655C47.5733 25.2183 48.625 23.5833 49.5 21.75C47.4167 17.5417 44.4267 14.1975 40.53 11.7175C36.635 9.23917 32.2917 8 27.5 8C26.2917 8 25.1042 8.08333 23.9375 8.25C22.7708 8.41667 21.625 8.66667 20.5 9L16.625 5.125C18.3333 4.41667 20.0833 3.885 21.875 3.53C23.6667 3.17667 25.5417 3 27.5 3C33.7917 3 39.3958 4.73917 44.3125 8.2175C49.2292 11.6975 52.7917 16.2083 55 21.75C54.0417 24.2083 52.7817 26.49 51.22 28.595C49.6567 30.6983 47.8333 32.5417 45.75 34.125ZM47 49.5L36.5 39.125C35.0417 39.5833 33.5733 39.9275 32.095 40.1575C30.615 40.3858 29.0833 40.5 27.5 40.5C21.2083 40.5 15.6042 38.7608 10.6875 35.2825C5.77083 31.8025 2.20833 27.2917 0 21.75C0.875 19.5417 1.97917 17.4892 3.3125 15.5925C4.64583 13.6975 6.16667 12 7.875 10.5L1 3.5L4.5 0L50.5 46L47 49.5ZM11.375 14C10.1667 15.0833 9.0625 16.2708 8.0625 17.5625C7.0625 18.8542 6.20833 20.25 5.5 21.75C7.58333 25.9583 10.5725 29.3017 14.4675 31.78C18.3642 34.26 22.7083 35.5 27.5 35.5C28.3333 35.5 29.1458 35.4483 29.9375 35.345C30.7292 35.24 31.5417 35.125 32.375 35L30.125 32.625C29.6667 32.75 29.2292 32.8433 28.8125 32.905C28.3958 32.9683 27.9583 33 27.5 33C24.375 33 21.7183 31.9067 19.53 29.72C17.3433 27.5317 16.25 24.875 16.25 21.75C16.25 21.2917 16.2808 20.8542 16.3425 20.4375C16.4058 20.0208 16.5 19.5833 16.625 19.125L11.375 14Z" fill="#13123F"/>
</svg>
