<svg width="40" height="40" viewBox="0 0 40 40" fill="none" xmlns="http://www.w3.org/2000/svg">
<path d="M21.6569 18.5392V29.5H18.3431V18.5392H21.6569ZM21.2151 13.3719C20.8875 13.6996 20.4933 13.8627 20 13.8627C19.5067 13.8627 19.1125 13.6996 18.7849 13.3719C18.4573 13.0443 18.2941 12.6501 18.2941 12.1569C18.2941 11.6636 18.4573 11.2694 18.7849 10.9418C19.1125 10.6142 19.5067 10.451 20 10.451C20.4933 10.451 20.8875 10.6142 21.2151 10.9418C21.5427 11.2694 21.7059 11.6636 21.7059 12.1569C21.7059 12.6501 21.5427 13.0443 21.2151 13.3719ZM20 39.5C17.2868 39.5 14.7477 38.9897 12.3778 37.972C9.99958 36.9502 7.93752 35.5637 6.18689 33.8131C4.43626 32.0625 3.0498 30.0004 2.02802 27.6222C1.01034 25.2523 0.5 22.7132 0.5 20C0.5 17.2868 1.01034 14.7477 2.02802 12.3778C3.0498 9.99958 4.43626 7.93752 6.18689 6.18689C7.93752 4.43626 9.99958 3.0498 12.3778 2.02802C14.7477 1.01034 17.2868 0.5 20 0.5C22.7132 0.5 25.2523 1.01034 27.6222 2.02802C30.0004 3.0498 32.0625 4.43626 33.8131 6.18689C35.5637 7.93752 36.9502 9.99958 37.972 12.3778C38.9897 14.7477 39.5 17.2868 39.5 20C39.5 22.7132 38.9897 25.2523 37.972 27.6222C36.9502 30.0004 35.5637 32.0625 33.8131 33.8131C32.0625 35.5637 30.0004 36.9502 27.6222 37.972C25.2523 38.9897 22.7132 39.5 20 39.5ZM20 36.0392C24.4757 36.0392 28.2803 34.4856 31.383 31.383C34.4856 28.2803 36.0392 24.4757 36.0392 20C36.0392 15.5243 34.4856 11.7196 31.383 8.61703C28.2803 5.51442 24.4757 3.96078 20 3.96078C15.5243 3.96078 11.7196 5.51442 8.61703 8.61703C5.51442 11.7196 3.96078 15.5243 3.96078 20C3.96078 24.4757 5.51442 28.2803 8.61703 31.383C11.7196 34.4856 15.5243 36.0392 20 36.0392Z" fill="#F54040" stroke="#F54040"/>
</svg>
