<svg width="43" height="40" viewBox="0 0 43 40" fill="none" xmlns="http://www.w3.org/2000/svg">
<path d="M26.9333 40H8V34.6667H26.9333C29.7333 34.6667 32.1662 33.7778 34.232 32C36.2996 30.2222 37.3333 28 37.3333 25.3333C37.3333 22.6667 36.2996 20.4444 34.232 18.6667C32.1662 16.8889 29.7333 16 26.9333 16H10.1333L17.0667 22.9333L13.3333 26.6667L0 13.3333L13.3333 0L17.0667 3.73333L10.1333 10.6667H26.9333C31.2444 10.6667 34.9449 12.0667 38.0347 14.8667C41.1227 17.6667 42.6667 21.1556 42.6667 25.3333C42.6667 29.5111 41.1227 33 38.0347 35.8C34.9449 38.6 31.2444 40 26.9333 40Z" fill="#F8F8F8"/>
</svg>
