<svg width="80" height="80" viewBox="0 0 80 80" fill="none" xmlns="http://www.w3.org/2000/svg">
<circle cx="40" cy="40" r="40" fill="#4440F5"/>
<path d="M64 26.231V53.4783C64 54.9345 63.4916 56.1708 62.4748 57.1871C61.4565 58.2019 60.2177 58.7093 58.7586 58.7093H22.2414C20.7823 58.7093 19.5435 58.2019 18.5252 57.1871C17.5084 56.1708 17 54.9345 17 53.4783V26.231C17 24.7748 17.5084 23.5385 18.5252 22.5222C19.5435 21.5074 20.7823 21 22.2414 21H58.7586C60.2177 21 61.4565 21.5074 62.4748 22.5222C63.4916 23.5385 64 24.7748 64 26.231ZM22.2414 30.5998H58.7586V26.231H22.2414V30.5998ZM22.2414 39.7972V53.4783H58.7586V39.7972H22.2414Z" fill="#F8F8F8"/>
</svg>
