<svg width="42" height="80" viewBox="0 0 42 80" fill="none" xmlns="http://www.w3.org/2000/svg">
<path d="M20.4977 80C19.2151 80 18.1212 79.5604 17.2158 78.6813C16.3105 77.8022 15.8578 76.7033 15.8578 75.3846V70.4396C12.3872 69.707 9.35126 68.3883 6.74987 66.4835C4.14545 64.5788 2.05106 61.978 0.46668 58.6813C-0.136892 57.5824 -0.155 56.4102 0.412358 55.1648C0.976698 53.9194 1.97561 53.0403 3.4091 52.5275C4.54079 52.0147 5.71021 52.0147 6.91736 52.5275C8.1245 53.0403 9.06758 53.9194 9.7466 55.1648C11.0292 57.2161 12.6332 58.7912 14.5586 59.8901C16.481 60.989 18.7625 61.5385 21.4031 61.5385C24.4964 61.5385 27.0616 60.8967 29.0986 59.6132C31.1357 58.3326 32.1542 56.337 32.1542 53.6264C32.1542 51.2088 31.3062 49.2483 29.6102 47.745C27.9111 46.2447 24.0814 44.5788 18.1212 42.7473C11.7082 40.7692 7.27498 38.3692 4.82146 35.5473C2.37095 32.7282 1.1457 29.304 1.1457 25.2747C1.1457 20.5861 2.69235 16.8864 5.78566 14.1758C8.87897 11.4652 12.2363 9.85348 15.8578 9.34066V4.61538C15.8578 3.2967 16.3105 2.1978 17.2158 1.31868C18.1212 0.43956 19.2151 0 20.4977 0C21.8558 0 22.9875 0.43956 23.8928 1.31868C24.7982 2.1978 25.2509 3.2967 25.2509 4.61538V9.34066C28.1178 9.85348 30.6272 10.7868 32.7789 12.1407C34.9276 13.4974 36.681 15.1648 38.0391 17.1429C38.7935 18.2418 38.9444 19.4315 38.4917 20.7121C38.0391 21.9956 37.096 22.8938 35.6625 23.4066C34.6062 23.9194 33.4745 23.956 32.2674 23.5165C31.0603 23.0769 29.8531 22.3077 28.646 21.2088C27.7406 20.2564 26.6466 19.5238 25.364 19.011C24.0814 18.4982 22.4971 18.2418 20.6109 18.2418C17.4422 18.2418 15.0475 18.9011 13.4269 20.2198C11.8033 21.5385 10.9915 23.1868 10.9915 25.1648C10.9915 27.5092 12.0477 29.3407 14.1602 30.6593C16.2727 31.978 20.1582 33.4432 25.8167 35.0549C31.098 36.5201 35.1163 38.8645 37.8716 42.0879C40.6239 45.3114 42 49.0842 42 53.4066C42 58.6813 40.3975 62.693 37.1925 65.4418C33.9846 68.1875 30.004 69.9267 25.2509 70.6593V75.3846C25.2509 76.7033 24.7982 77.8022 23.8928 78.6813C22.9875 79.5604 21.8558 80 20.4977 80Z" fill="#F8F8F8"/>
</svg>
