<svg width="87" height="85" viewBox="0 0 87 85" fill="none" xmlns="http://www.w3.org/2000/svg">
<path d="M74.586 49.8638H83.8456V23.4533C83.8456 21.8897 83.5064 20.4622 82.8281 19.1705C82.1497 17.8789 81.1661 16.7912 79.8772 15.9075L60.1368 1.73351C58.5088 0.577835 56.7287 0 54.7968 0C52.8621 0 51.0807 0.577835 49.4526 1.73351L29.6105 15.9075C28.3895 16.7232 27.4398 17.7932 26.7614 19.1175C26.083 20.4445 25.7439 21.8897 25.7439 23.4533V28.7558H35.0035V23.3513L54.7439 9.48329L74.586 23.3513V49.8638ZM58.814 25.6967C58.2713 25.6967 57.7789 25.4587 57.3366 24.9829C56.897 24.507 56.6772 23.9971 56.6772 23.4533C56.6772 22.8415 56.897 22.3153 57.3366 21.8748C57.7789 21.4316 58.2713 21.2099 58.814 21.2099C59.4246 21.2099 59.9496 21.4316 60.3892 21.8748C60.8315 22.3153 61.0526 22.8415 61.0526 23.4533C61.0526 23.9971 60.8315 24.507 60.3892 24.9829C59.9496 25.4587 59.4246 25.6967 58.814 25.6967ZM50.6737 25.6967C50.131 25.6967 49.6385 25.4587 49.1962 24.9829C48.7566 24.507 48.5368 23.9971 48.5368 23.4533C48.5368 22.8415 48.7566 22.3153 49.1962 21.8748C49.6385 21.4316 50.131 21.2099 50.6737 21.2099C51.2842 21.2099 51.8093 21.4316 52.2488 21.8748C52.6911 22.3153 52.9123 22.8415 52.9123 23.4533C52.9123 23.9971 52.6911 24.507 52.2488 24.9829C51.8093 25.4587 51.2842 25.6967 50.6737 25.6967ZM58.814 33.8543C58.2713 33.8543 57.7789 33.6164 57.3366 33.1405C56.897 32.6647 56.6772 32.1548 56.6772 31.611C56.6772 30.9991 56.897 30.4716 57.3366 30.0284C57.7789 29.5879 58.2713 29.3676 58.814 29.3676C59.4246 29.3676 59.9496 29.5879 60.3892 30.0284C60.8315 30.4716 61.0526 30.9991 61.0526 31.611C61.0526 32.1548 60.8315 32.6647 60.3892 33.1405C59.9496 33.6164 59.4246 33.8543 58.814 33.8543ZM50.6737 33.8543C50.131 33.8543 49.6385 33.6164 49.1962 33.1405C48.7566 32.6647 48.5368 32.1548 48.5368 31.611C48.5368 30.9991 48.7566 30.4716 49.1962 30.0284C49.6385 29.5879 50.131 29.3676 50.6737 29.3676C51.2842 29.3676 51.8093 29.5879 52.2488 30.0284C52.6911 30.4716 52.9123 30.9991 52.9123 31.611C52.9123 32.1548 52.6911 32.6647 52.2488 33.1405C51.8093 33.6164 51.2842 33.8543 50.6737 33.8543ZM53.4211 75.9683L77.6386 68.4225C77.2994 67.8106 76.8083 67.2831 76.1652 66.8399C75.5194 66.3994 74.7895 66.1791 73.9754 66.1791H53.2175C51.5216 66.1791 50.131 66.1111 49.0456 65.9752C47.9602 65.8392 46.8409 65.5673 45.6877 65.1594L39.8877 63.2219C38.8023 62.882 38.0222 62.2022 37.5474 61.1825C37.0725 60.1628 37.0047 59.1431 37.3439 58.1234C37.683 57.0357 38.3438 56.2363 39.326 55.725C40.311 55.2165 41.3462 55.1323 42.4316 55.4722L47.0105 56.8997C48.0959 57.2397 49.3509 57.5116 50.7754 57.7155C52.2 57.9195 54.1333 58.0214 56.5754 58.0214H56.9825C57.1181 58.0214 57.2362 58.0214 57.3366 58.0214C57.4397 58.0214 57.5591 58.0214 57.6947 58.0214C57.6947 57.2736 57.4749 56.5598 57.0354 55.88C56.5931 55.2002 56.0667 54.7584 55.4561 54.5544L31.6456 45.7849H25.5404V68.3205L53.4211 75.9683ZM50.9789 84.6358L25.5404 77.4979C24.862 79.2654 23.6409 80.6753 21.8772 81.7276C20.1135 82.7827 18.248 83.3102 16.2807 83.3102H9.25965C6.68187 83.3102 4.49483 82.3925 2.69853 80.557C0.899509 78.7215 0 76.5461 0 74.0309V46.1928C0 43.6095 0.899509 41.4165 2.69853 39.6136C4.49483 37.8135 6.68187 36.9135 9.25965 36.9135H31.6456C32.1883 36.9135 32.731 36.9651 33.2737 37.0684C33.8164 37.1691 34.3251 37.3213 34.8 37.5253L58.6105 46.2948C60.9848 47.1785 62.9181 48.6904 64.4105 50.8304C65.9029 52.9732 66.6491 55.3702 66.6491 58.0214H73.9754C77.5708 58.0214 80.641 59.1091 83.1862 61.2845C85.7288 63.4599 87 66.451 87 70.2579C87 71.9574 86.5591 73.2994 85.6772 74.2837C84.7953 75.2708 83.4725 76.0363 81.7088 76.5801L56.3719 84.5339C55.4901 84.8058 54.5919 84.9594 53.6775 84.9948C52.7603 85.0274 51.8608 84.9077 50.9789 84.6358ZM8.85263 74.3368H16.6877V45.7849H8.85263V74.3368Z" fill="#F8F8F8"/>
</svg>
