<svg width="188" height="45" viewBox="0 0 188 45" fill="none" xmlns="http://www.w3.org/2000/svg">
<path d="M3.768 35.384C2.776 35.384 2.008 35.112 1.464 34.568C0.952 33.992 0.696 33.208 0.696 32.216V4.28C0.696 3.256 0.968 2.488 1.512 1.976C2.056 1.432 2.824 1.16 3.816 1.16H15.384C19.096 1.16 21.96 2.088 23.976 3.944C25.992 5.8 27 8.392 27 11.72C27 15.048 25.992 17.656 23.976 19.544C21.96 21.4 19.096 22.328 15.384 22.328H6.84V32.216C6.84 33.208 6.584 33.992 6.072 34.568C5.56 35.112 4.792 35.384 3.768 35.384ZM6.84 17.48H14.424C16.6 17.48 18.248 17 19.368 16.04C20.488 15.048 21.048 13.608 21.048 11.72C21.048 9.832 20.488 8.408 19.368 7.448C18.248 6.488 16.6 6.008 14.424 6.008H6.84V17.48ZM38.0355 35.48C36.3395 35.48 34.8195 35.16 33.4755 34.52C32.1635 33.848 31.1235 32.952 30.3555 31.832C29.6195 30.712 29.2515 29.448 29.2515 28.04C29.2515 26.312 29.6995 24.952 30.5955 23.96C31.4915 22.936 32.9475 22.2 34.9635 21.752C36.9795 21.304 39.6835 21.08 43.0755 21.08H45.4755V24.536H43.1235C41.1395 24.536 39.5555 24.632 38.3715 24.824C37.1875 25.016 36.3395 25.352 35.8275 25.832C35.3475 26.28 35.1075 26.92 35.1075 27.752C35.1075 28.808 35.4755 29.672 36.2115 30.344C36.9475 31.016 37.9715 31.352 39.2835 31.352C40.3395 31.352 41.2675 31.112 42.0675 30.632C42.8995 30.12 43.5555 29.432 44.0355 28.568C44.5155 27.704 44.7555 26.712 44.7555 25.592V20.072C44.7555 18.472 44.4035 17.32 43.6995 16.616C42.9955 15.912 41.8115 15.56 40.1475 15.56C39.2195 15.56 38.2115 15.672 37.1235 15.896C36.0675 16.12 34.9475 16.504 33.7635 17.048C33.1555 17.336 32.6115 17.416 32.1315 17.288C31.6835 17.16 31.3315 16.904 31.0755 16.52C30.8195 16.104 30.6915 15.656 30.6915 15.176C30.6915 14.696 30.8195 14.232 31.0755 13.784C31.3315 13.304 31.7635 12.952 32.3715 12.728C33.8435 12.12 35.2515 11.688 36.5955 11.432C37.9715 11.176 39.2195 11.048 40.3395 11.048C42.6435 11.048 44.5315 11.4 46.0035 12.104C47.5075 12.808 48.6275 13.88 49.3635 15.32C50.0995 16.728 50.4675 18.552 50.4675 20.792V32.312C50.4675 33.304 50.2275 34.072 49.7475 34.616C49.2675 35.128 48.5795 35.384 47.6835 35.384C46.7875 35.384 46.0835 35.128 45.5715 34.616C45.0915 34.072 44.8515 33.304 44.8515 32.312V30.008H45.2355C45.0115 31.128 44.5635 32.104 43.8915 32.936C43.2515 33.736 42.4355 34.36 41.4435 34.808C40.4515 35.256 39.3155 35.48 38.0355 35.48ZM62.2751 44.024C61.5711 44.024 60.9951 43.832 60.5471 43.448C60.0991 43.096 59.8271 42.616 59.7311 42.008C59.6671 41.4 59.7791 40.76 60.0671 40.088L63.3311 32.84V35.336L54.5951 15.128C54.3071 14.424 54.2111 13.768 54.3071 13.16C54.4031 12.552 54.6911 12.072 55.1711 11.72C55.6831 11.336 56.3711 11.144 57.2351 11.144C57.9711 11.144 58.5631 11.32 59.0111 11.672C59.4591 11.992 59.8591 12.616 60.2111 13.544L66.6911 29.72H65.2511L71.8751 13.496C72.2271 12.6 72.6431 11.992 73.1231 11.672C73.6031 11.32 74.2431 11.144 75.0431 11.144C75.7471 11.144 76.3071 11.336 76.7231 11.72C77.1391 12.072 77.3951 12.552 77.4911 13.16C77.5871 13.736 77.4751 14.376 77.1551 15.08L65.4911 41.72C65.0751 42.616 64.6271 43.224 64.1471 43.544C63.6671 43.864 63.0431 44.024 62.2751 44.024Z" fill="#13123F"/>
<path d="M95.1248 35.48C93.1408 35.48 91.3968 34.984 89.8928 33.992C88.4208 33 87.4448 31.672 86.9648 30.008L87.4928 28.808V32.312C87.4928 33.304 87.2368 34.072 86.7248 34.616C86.2128 35.128 85.4928 35.384 84.5648 35.384C83.6048 35.384 82.8688 35.128 82.3568 34.616C81.8448 34.072 81.5888 33.304 81.5888 32.312V3.8C81.5888 2.808 81.8448 2.056 82.3568 1.544C82.8688 1.032 83.6048 0.775997 84.5648 0.775997C85.5248 0.775997 86.2608 1.032 86.7728 1.544C87.3168 2.056 87.5888 2.808 87.5888 3.8V16.28H87.0128C87.5248 14.712 88.5168 13.448 89.9888 12.488C91.4608 11.528 93.1728 11.048 95.1248 11.048C97.2048 11.048 99.0128 11.544 100.549 12.536C102.085 13.528 103.285 14.936 104.149 16.76C105.013 18.552 105.445 20.712 105.445 23.24C105.445 25.736 105.013 27.912 104.149 29.768C103.285 31.592 102.069 33 100.501 33.992C98.9648 34.984 97.1728 35.48 95.1248 35.48ZM93.4448 30.92C94.6288 30.92 95.6688 30.632 96.5648 30.056C97.4608 29.48 98.1488 28.632 98.6288 27.512C99.1408 26.36 99.3968 24.936 99.3968 23.24C99.3968 20.68 98.8528 18.776 97.7648 17.528C96.6768 16.248 95.2368 15.608 93.4448 15.608C92.2608 15.608 91.2208 15.896 90.3248 16.472C89.4288 17.016 88.7248 17.864 88.2128 19.016C87.7328 20.136 87.4928 21.544 87.4928 23.24C87.4928 25.768 88.0368 27.688 89.1248 29C90.2128 30.28 91.6528 30.92 93.4448 30.92ZM118.098 35.48C116.402 35.48 114.882 35.16 113.538 34.52C112.226 33.848 111.186 32.952 110.418 31.832C109.682 30.712 109.314 29.448 109.314 28.04C109.314 26.312 109.762 24.952 110.658 23.96C111.554 22.936 113.01 22.2 115.026 21.752C117.042 21.304 119.746 21.08 123.138 21.08H125.538V24.536H123.186C121.202 24.536 119.618 24.632 118.434 24.824C117.25 25.016 116.402 25.352 115.89 25.832C115.41 26.28 115.17 26.92 115.17 27.752C115.17 28.808 115.538 29.672 116.274 30.344C117.01 31.016 118.034 31.352 119.346 31.352C120.402 31.352 121.33 31.112 122.13 30.632C122.962 30.12 123.618 29.432 124.098 28.568C124.578 27.704 124.818 26.712 124.818 25.592V20.072C124.818 18.472 124.466 17.32 123.762 16.616C123.058 15.912 121.874 15.56 120.21 15.56C119.282 15.56 118.274 15.672 117.186 15.896C116.13 16.12 115.01 16.504 113.826 17.048C113.218 17.336 112.674 17.416 112.194 17.288C111.746 17.16 111.394 16.904 111.138 16.52C110.882 16.104 110.754 15.656 110.754 15.176C110.754 14.696 110.882 14.232 111.138 13.784C111.394 13.304 111.826 12.952 112.434 12.728C113.906 12.12 115.314 11.688 116.658 11.432C118.034 11.176 119.282 11.048 120.402 11.048C122.706 11.048 124.594 11.4 126.066 12.104C127.57 12.808 128.69 13.88 129.426 15.32C130.162 16.728 130.53 18.552 130.53 20.792V32.312C130.53 33.304 130.29 34.072 129.81 34.616C129.33 35.128 128.642 35.384 127.746 35.384C126.85 35.384 126.146 35.128 125.634 34.616C125.154 34.072 124.914 33.304 124.914 32.312V30.008H125.298C125.074 31.128 124.626 32.104 123.954 32.936C123.314 33.736 122.498 34.36 121.506 34.808C120.514 35.256 119.378 35.48 118.098 35.48ZM139.596 35.384C138.636 35.384 137.9 35.128 137.388 34.616C136.876 34.072 136.62 33.304 136.62 32.312V14.168C136.62 13.176 136.876 12.424 137.388 11.912C137.9 11.4 138.62 11.144 139.548 11.144C140.476 11.144 141.196 11.4 141.708 11.912C142.22 12.424 142.476 13.176 142.476 14.168V17.432L141.948 16.232C142.652 14.536 143.74 13.256 145.212 12.392C146.716 11.496 148.412 11.048 150.3 11.048C152.188 11.048 153.74 11.4 154.956 12.104C156.172 12.808 157.084 13.88 157.692 15.32C158.3 16.728 158.604 18.52 158.604 20.696V32.312C158.604 33.304 158.348 34.072 157.836 34.616C157.324 35.128 156.588 35.384 155.628 35.384C154.668 35.384 153.916 35.128 153.372 34.616C152.86 34.072 152.604 33.304 152.604 32.312V20.984C152.604 19.16 152.252 17.832 151.548 17C150.876 16.168 149.82 15.752 148.38 15.752C146.62 15.752 145.212 16.312 144.156 17.432C143.132 18.52 142.62 19.976 142.62 21.8V32.312C142.62 34.36 141.612 35.384 139.596 35.384ZM169.114 35.384C168.154 35.384 167.418 35.128 166.906 34.616C166.394 34.072 166.138 33.304 166.138 32.312V3.8C166.138 2.808 166.394 2.056 166.906 1.544C167.418 1.032 168.154 0.775997 169.114 0.775997C170.074 0.775997 170.81 1.032 171.322 1.544C171.866 2.056 172.138 2.808 172.138 3.8V21.512H172.234L180.154 13.16C180.794 12.52 181.354 12.024 181.834 11.672C182.314 11.32 182.97 11.144 183.802 11.144C184.634 11.144 185.258 11.368 185.674 11.816C186.122 12.232 186.346 12.744 186.346 13.352C186.346 13.96 186.058 14.568 185.482 15.176L177.13 24.008V21.512L186.298 31.4C186.874 32.008 187.13 32.632 187.066 33.272C187.034 33.88 186.778 34.392 186.298 34.808C185.818 35.192 185.21 35.384 184.474 35.384C183.578 35.384 182.858 35.208 182.314 34.856C181.802 34.504 181.226 33.976 180.586 33.272L172.234 24.536H172.138V32.312C172.138 34.36 171.13 35.384 169.114 35.384Z" fill="#4440F5"/>
</svg>
