<svg width="48" height="48" viewBox="0 0 48 48" fill="none" xmlns="http://www.w3.org/2000/svg">
<mask id="mask0_707_8" style="mask-type:alpha" maskUnits="userSpaceOnUse" x="0" y="0" width="48" height="48">
<rect width="48" height="48" fill="#D9D9D9"/>
</mask>
<g mask="url(#mask0_707_8)">
<path d="M26.199 46H20.999L21.999 45.376C22.6657 44.9587 23.391 44.492 24.175 43.976C24.9577 43.4587 25.6824 42.992 26.349 42.576L27.349 41.95C30.049 41.75 32.541 40.9333 34.825 39.5C37.1077 38.0667 38.9157 36.15 40.249 33.75C37.3824 33.4833 34.6657 32.7587 32.099 31.576C29.5324 30.392 27.2324 28.7833 25.199 26.75C23.1657 24.7167 21.549 22.4167 20.349 19.85C19.149 17.2833 18.4324 14.5667 18.199 11.7C15.6324 13.1333 13.6244 15.108 12.175 17.624C10.7244 20.1413 9.99902 22.8667 9.99902 25.8V26.4L9.39902 26.674C8.99902 26.858 8.55769 27.05 8.07502 27.25C7.59102 27.45 7.14902 27.6413 6.74902 27.824L6.14902 28.1C6.08236 27.7333 6.04102 27.35 6.02502 26.95C6.00769 26.55 5.99902 26.1667 5.99902 25.8C5.99902 20.9333 7.54902 16.6413 10.649 12.924C13.749 9.208 17.699 6.9 22.499 6C21.899 9.3 22.0824 12.5247 23.049 15.674C24.0157 18.8247 25.6824 21.5833 28.049 23.95C30.4157 26.3167 33.1744 27.9833 36.325 28.95C39.4744 29.9167 42.699 30.1 45.999 29.5C45.1324 34.3 42.8324 38.25 39.099 41.35C35.3657 44.45 31.0657 46 26.199 46ZM11.999 42H20.999C21.8324 42 22.5404 41.708 23.123 41.124C23.707 40.5413 23.999 39.8333 23.999 39C23.999 38.1667 23.7157 37.4587 23.149 36.876C22.5824 36.292 21.899 36 21.099 36H18.499L17.499 33.6C17.0324 32.5 16.299 31.6253 15.299 30.976C14.299 30.3253 13.199 30 11.999 30C10.3324 30 8.91569 30.5753 7.74902 31.726C6.58236 32.8753 5.99902 34.3 5.99902 36C5.99902 37.6667 6.58236 39.0833 7.74902 40.25C8.91569 41.4167 10.3324 42 11.999 42ZM11.999 46C9.23236 46 6.87436 45.0253 4.92502 43.076C2.97436 41.1253 1.99902 38.7667 1.99902 36C1.99902 33.2333 2.97436 30.8747 4.92502 28.924C6.87436 26.9747 9.23236 26 11.999 26C13.999 26 15.8244 26.5413 17.475 27.624C19.1244 28.708 20.349 30.1667 21.149 32C23.049 32.0667 24.6657 32.7747 25.999 34.124C27.3324 35.4747 27.999 37.1 27.999 39C27.999 40.9333 27.3157 42.5833 25.949 43.95C24.5824 45.3167 22.9324 46 20.999 46H11.999Z" fill="#C2C0ED"/>
</g>
</svg>
