<svg width="48" height="48" viewBox="0 0 48 48" fill="none" xmlns="http://www.w3.org/2000/svg">
<mask id="mask0_707_353" style="mask-type:alpha" maskUnits="userSpaceOnUse" x="0" y="0" width="48" height="48">
<rect width="48" height="48" fill="#D9D9D9"/>
</mask>
<g mask="url(#mask0_707_353)">
<path d="M24 10C23.4333 10 22.9587 9.808 22.576 9.424C22.192 9.04133 22 8.56667 22 8V4C22 3.43333 22.192 2.958 22.576 2.574C22.9587 2.19133 23.4333 2 24 2C24.5667 2 25.042 2.19133 25.426 2.574C25.8087 2.958 26 3.43333 26 4V8C26 8.56667 25.8087 9.04133 25.426 9.424C25.042 9.808 24.5667 10 24 10ZM33.9 14.1C33.5333 13.7333 33.35 13.2747 33.35 12.724C33.35 12.1747 33.5333 11.7 33.9 11.3L36.7 8.45C37.1 8.05 37.5747 7.85 38.124 7.85C38.6747 7.85 39.15 8.05 39.55 8.45C39.9167 8.81667 40.1 9.28333 40.1 9.85C40.1 10.4167 39.9167 10.8833 39.55 11.25L36.7 14.1C36.3333 14.4667 35.8667 14.65 35.3 14.65C34.7333 14.65 34.2667 14.4667 33.9 14.1ZM40 26C39.4333 26 38.9587 25.808 38.576 25.424C38.192 25.0413 38 24.5667 38 24C38 23.4333 38.192 22.958 38.576 22.574C38.9587 22.1913 39.4333 22 40 22H44C44.5667 22 45.0413 22.1913 45.424 22.574C45.808 22.958 46 23.4333 46 24C46 24.5667 45.808 25.0413 45.424 25.424C45.0413 25.808 44.5667 26 44 26H40ZM24 46C23.4333 46 22.9587 45.808 22.576 45.424C22.192 45.0413 22 44.5667 22 44V40C22 39.4333 22.192 38.9587 22.576 38.576C22.9587 38.192 23.4333 38 24 38C24.5667 38 25.042 38.192 25.426 38.576C25.8087 38.9587 26 39.4333 26 40V44C26 44.5667 25.8087 45.0413 25.426 45.424C25.042 45.808 24.5667 46 24 46ZM11.3 14.1L8.45 11.3C8.05 10.9 7.85 10.4167 7.85 9.85C7.85 9.28333 8.05 8.81667 8.45 8.45C8.81667 8.08333 9.28333 7.9 9.85 7.9C10.4167 7.9 10.8833 8.08333 11.25 8.45L14.1 11.3C14.4667 11.6667 14.65 12.1333 14.65 12.7C14.65 13.2667 14.4667 13.7333 14.1 14.1C13.7 14.4667 13.2333 14.65 12.7 14.65C12.1667 14.65 11.7 14.4667 11.3 14.1ZM36.7 39.55L33.9 36.7C33.5333 36.3 33.35 35.8253 33.35 35.276C33.35 34.7253 33.5333 34.2667 33.9 33.9C34.2667 33.5333 34.7253 33.35 35.276 33.35C35.8253 33.35 36.3 33.5333 36.7 33.9L39.55 36.7C39.95 37.0667 40.1413 37.5333 40.124 38.1C40.108 38.6667 39.9167 39.15 39.55 39.55C39.15 39.95 38.6667 40.15 38.1 40.15C37.5333 40.15 37.0667 39.95 36.7 39.55ZM4 26C3.43333 26 2.95867 25.808 2.576 25.424C2.192 25.0413 2 24.5667 2 24C2 23.4333 2.192 22.958 2.576 22.574C2.95867 22.1913 3.43333 22 4 22H8C8.56667 22 9.042 22.1913 9.426 22.574C9.80867 22.958 10 23.4333 10 24C10 24.5667 9.80867 25.0413 9.426 25.424C9.042 25.808 8.56667 26 8 26H4ZM8.45 39.55C8.08333 39.1833 7.9 38.7167 7.9 38.15C7.9 37.5833 8.08333 37.1167 8.45 36.75L11.3 33.9C11.6667 33.5333 12.1253 33.35 12.676 33.35C13.2253 33.35 13.7 33.5333 14.1 33.9C14.5 34.3 14.7 34.7753 14.7 35.326C14.7 35.8753 14.5 36.35 14.1 36.75L11.3 39.55C10.9 39.95 10.4167 40.15 9.85 40.15C9.28333 40.15 8.81667 39.95 8.45 39.55ZM24 36C20.6667 36 17.8333 34.8333 15.5 32.5C13.1667 30.1667 12 27.3333 12 24C12 20.6667 13.1667 17.8333 15.5 15.5C17.8333 13.1667 20.6667 12 24 12C27.3333 12 30.1667 13.1667 32.5 15.5C34.8333 17.8333 36 20.6667 36 24C36 27.3333 34.8333 30.1667 32.5 32.5C30.1667 34.8333 27.3333 36 24 36ZM24 32C26.2 32 28.0833 31.2167 29.65 29.65C31.2167 28.0833 32 26.2 32 24C32 21.8 31.2167 19.9167 29.65 18.35C28.0833 16.7833 26.2 16 24 16C21.8 16 19.9167 16.7833 18.35 18.35C16.7833 19.9167 16 21.8 16 24C16 26.2 16.7833 28.0833 18.35 29.65C19.9167 31.2167 21.8 32 24 32Z" fill="#13123F"/>
</g>
</svg>
