<svg width="80" height="85" viewBox="0 0 80 85" fill="none" xmlns="http://www.w3.org/2000/svg">
<rect y="77" width="80" height="8" rx="2" fill="#F8F8F8"/>
<path d="M62.5328 27.4763C61.6245 28.3922 60.4884 28.8318 59.1245 28.7952C57.7635 28.7614 56.6288 28.2865 55.7205 27.3707L44.821 16.3801L44.821 62.1388C44.821 63.4774 44.3486 64.6229 43.404 65.5755C42.4622 66.5252 41.3275 67 40 67C38.6725 67 37.5378 66.5252 36.596 65.5755C35.6514 64.6229 35.179 63.4774 35.179 62.1388L35.179 16.3801L24.1747 27.4763C23.2664 28.3922 22.1485 28.8502 20.821 28.8502C19.4935 28.8502 18.3755 28.3922 17.4672 27.4763C16.4891 26.5605 16 25.4332 16 24.0946C16 22.756 16.4891 21.5936 17.4672 20.6073L36.6463 1.26814C37.1354 0.845423 37.6594 0.528387 38.2183 0.317031C38.7773 0.105674 39.3712 7.66291e-07 40 7.73789e-07C40.6288 7.81288e-07 41.2227 0.105674 41.7817 0.317031C42.3406 0.528387 42.8646 0.845423 43.3537 1.26814L62.6376 20.7129C63.5459 21.6288 64 22.756 64 24.0946C64 25.4332 63.5109 26.5605 62.5328 27.4763Z" fill="#F8F8F8"/>
</svg>
