<svg width="56" height="38" viewBox="0 0 56 38" fill="none" xmlns="http://www.w3.org/2000/svg">
<path d="M28 30C31.125 30 33.7817 28.9067 35.97 26.72C38.1567 24.5317 39.25 21.875 39.25 18.75C39.25 15.625 38.1567 12.9683 35.97 10.78C33.7817 8.59333 31.125 7.5 28 7.5C24.875 7.5 22.2183 8.59333 20.03 10.78C17.8433 12.9683 16.75 15.625 16.75 18.75C16.75 21.875 17.8433 24.5317 20.03 26.72C22.2183 28.9067 24.875 30 28 30ZM28 25.5C26.125 25.5 24.5317 24.8433 23.22 23.53C21.9067 22.2183 21.25 20.625 21.25 18.75C21.25 16.875 21.9067 15.2808 23.22 13.9675C24.5317 12.6558 26.125 12 28 12C29.875 12 31.4692 12.6558 32.7825 13.9675C34.0942 15.2808 34.75 16.875 34.75 18.75C34.75 20.625 34.0942 22.2183 32.7825 23.53C31.4692 24.8433 29.875 25.5 28 25.5ZM28 37.5C21.9167 37.5 16.375 35.8017 11.375 32.405C6.375 29.01 2.75 24.4583 0.5 18.75C2.75 13.0417 6.375 8.48917 11.375 5.0925C16.375 1.6975 21.9167 0 28 0C34.0833 0 39.625 1.6975 44.625 5.0925C49.625 8.48917 53.25 13.0417 55.5 18.75C53.25 24.4583 49.625 29.01 44.625 32.405C39.625 35.8017 34.0833 37.5 28 37.5ZM28 32.5C32.7083 32.5 37.0317 31.26 40.97 28.78C44.9067 26.3017 47.9167 22.9583 50 18.75C47.9167 14.5417 44.9067 11.1975 40.97 8.7175C37.0317 6.23917 32.7083 5 28 5C23.2917 5 18.9683 6.23917 15.03 8.7175C11.0933 11.1975 8.08333 14.5417 6 18.75C8.08333 22.9583 11.0933 26.3017 15.03 28.78C18.9683 31.26 23.2917 32.5 28 32.5Z" fill="#13123F"/>
</svg>
